HIERARCHY
ROOT Hips
{
	OFFSET 0.000000 0.000000 0.000000
	CHANNELS 6 Xposition Yposition Zposition Xrotation Yrotation Zrotation
	JOINT LeftUpLeg_virtual
	{
		OFFSET 0.000000 0.000000 0.000000
		CHANNELS 3 Xrotation Yrotation Zrotation
		JOINT LeftUpLeg
		{
			OFFSET 11.394100 -6.187798 -0.413800
			CHANNELS 3 Xrotation Yrotation Zrotation
			JOINT LeftLeg
			{
				OFFSET 0.430247 -32.302673 3.732800
				CHANNELS 3 Xrotation Yrotation Zrotation
				JOINT LeftFoot
				{
					OFFSET -0.430247 -48.264931 -6.423300
					CHANNELS 3 Xrotation Yrotation Zrotation
					JOINT LeftToeBase
					{
						OFFSET 4.230900 -16.068199 23.438400
						CHANNELS 3 Xrotation Yrotation Zrotation
						JOINT LeftToe_End
						{
							OFFSET 4.510700 0.695400 19.974600
							CHANNELS 3 Xrotation Yrotation Zrotation
							End Site
							{
								OFFSET 0 0 0
							}
						}
					}
				}
			}
		}
	}
	JOINT RightUpLeg_virtual
	{
		OFFSET 0.000000 0.000000 0.000000
		CHANNELS 3 Xrotation Yrotation Zrotation
		JOINT RightUpLeg
		{
			OFFSET -11.333700 -6.187798 -0.413800
			CHANNELS 3 Xrotation Yrotation Zrotation
			JOINT RightLeg
			{
				OFFSET -0.430392 -32.302628 3.733000
				CHANNELS 3 Xrotation Yrotation Zrotation
				JOINT RightFoot
				{
					OFFSET 0.430392 -48.264973 -6.423500
					CHANNELS 3 Xrotation Yrotation Zrotation
					JOINT RightToeBase
					{
						OFFSET -4.230900 -16.068199 23.438400
						CHANNELS 3 Xrotation Yrotation Zrotation
						JOINT RightToe_End
						{
							OFFSET -4.510700 0.695400 19.974600
							CHANNELS 3 Xrotation Yrotation Zrotation
							End Site
							{
								OFFSET 0 0 0
							}
						}
					}
				}
			}
		}
	}
	JOINT Spine_virtual
	{
		OFFSET 0.000000 0.000000 0.000000
		CHANNELS 3 Xrotation Yrotation Zrotation
		JOINT Spine
		{
			OFFSET -0.002400 12.777504 0.315300
			CHANNELS 3 Xrotation Yrotation Zrotation
			JOINT Spine1
			{
				OFFSET -0.002067 5.816869 0.032633
				CHANNELS 3 Xrotation Yrotation Zrotation
				JOINT Spine1_split
				{
					OFFSET -0.002067 5.816869 0.032633
					CHANNELS 3 Xrotation Yrotation Zrotation
					JOINT Spine2
					{
						OFFSET -0.002067 5.816869 0.032633
						CHANNELS 3 Xrotation Yrotation Zrotation
						JOINT Neck_virtual
						{
							OFFSET 0.000000 0.000000 0.000000
							CHANNELS 3 Xrotation Yrotation Zrotation
							JOINT Neck
							{
								OFFSET -0.003700 21.199493 -0.826900
								CHANNELS 3 Xrotation Yrotation Zrotation
								JOINT Head
								{
									OFFSET 0.000000 20.442200 4.834800
									CHANNELS 3 Xrotation Yrotation Zrotation
									JOINT HeadTop_End
									{
										OFFSET 0.000000 34.668396 4.968400
										CHANNELS 3 Xrotation Yrotation Zrotation
										End Site
										{
											OFFSET 0 0 0
										}
									}
								}
							}
						}
						JOINT LeftShoulder_virtual
						{
							OFFSET 0.000000 0.000000 0.000000
							CHANNELS 3 Xrotation Yrotation Zrotation
							JOINT LeftShoulder
							{
								OFFSET 3.288150 8.794197 -1.372250
								CHANNELS 3 Xrotation Yrotation Zrotation
								JOINT LeftShoulder_split
								{
									OFFSET 3.288150 8.794197 -1.372250
									CHANNELS 3 Xrotation Yrotation Zrotation
									JOINT LeftArm
									{
										OFFSET 11.953299 -2.279007 -0.146200
										CHANNELS 3 Xrotation Yrotation Zrotation
										JOINT LeftForeArm
										{
											OFFSET 18.448900 0.000000 0.000000
											CHANNELS 3 Xrotation Yrotation Zrotation
											JOINT LeftHand
											{
												OFFSET 29.527798 0.000000 0.000000
												CHANNELS 3 Xrotation Yrotation Zrotation
												End Site
												{
													OFFSET 0 0 0
												}
											}
										}
									}
								}
							}
						}
						JOINT RightShoulder_virtual
						{
							OFFSET 0.000000 0.000000 0.000000
							CHANNELS 3 Xrotation Yrotation Zrotation
							JOINT RightShoulder
							{
								OFFSET -3.249400 8.794197 -1.372250
								CHANNELS 3 Xrotation Yrotation Zrotation
								JOINT RightShoulder_split
								{
									OFFSET -3.249400 8.794197 -1.372250
									CHANNELS 3 Xrotation Yrotation Zrotation
									JOINT RightArm
									{
										OFFSET -11.953299 -2.279007 -0.146200
										CHANNELS 3 Xrotation Yrotation Zrotation
										JOINT RightForeArm
										{
											OFFSET -18.448900 0.000000 0.000000
											CHANNELS 3 Xrotation Yrotation Zrotation
											JOINT RightHand
											{
												OFFSET -29.527802 0.000000 0.000000
												CHANNELS 3 Xrotation Yrotation Zrotation
												End Site
												{
													OFFSET 0 0 0
												}
											}
										}
									}
								}
							}
						}
					}
				}
			}
		}
	}
}
MOTION
Frames: 10
Frame Time: 0.03333333
-1.086036 91.965958 4.618778 0.000000 0.000000 0.000000 -14.547777 -1.248972 -5.313418 -34.576754 21.344638 11.352157 40.901341 -8.752386 9.784928 2.677648 -6.806213 -0.014733 -2.736057 0.051194 -1.205951 0.000000 0.000000 0.000000 -13.991559 -0.852198 -5.460704 -24.126974 -31.990485 -1.720444 35.307314 9.327192 -10.268985 4.502480 8.549978 -6.897676 -3.082974 0.270430 -0.334715 0.000000 0.000000 0.000000 -14.321743 -1.796524 -5.995922 5.024304 -1.339343 2.497588 13.576708 -0.759831 -0.517476 0.508438 2.364073 -0.414315 0.000000 0.000000 0.000000 12.217668 -0.217903 -0.754348 12.043453 0.798146 1.078355 -2.497694 0.557829 3.027791 0.000000 0.000000 0.000000 12.508257 -0.099730 -0.820188 0.841179 6.854779 -10.071877 -1.884752 -2.726069 -0.595973 65.599329 -67.348329 -4.676166 0.236184 -26.989633 1.269252 0.000000 0.000000 0.000000 12.565696 -0.311269 -0.832226 1.361897 -1.649862 11.777054 6.057786 0.478173 -2.438427 6.413736 36.017958 57.926657 -0.916241 28.201390 0.387902 0.000000 0.000000 0.000000 
-1.097532 91.975304 4.634647 0.000000 0.000000 0.000000 -14.537873 -1.232059 -5.315955 -34.580271 21.357546 11.353835 40.897513 -8.751115 9.789393 2.685760 -6.803081 -0.013929 -2.735913 0.050728 -1.204770 0.000000 0.000000 0.000000 -13.983079 -0.840786 -5.463361 -24.123926 -31.985906 -1.718699 35.291997 9.335783 -10.271251 4.506473 8.567087 -6.884183 -3.104425 0.267512 -0.333054 0.000000 0.000000 0.000000 -14.305919 -1.777244 -5.996408 5.015096 -1.336682 2.499312 13.576971 -0.759037 -0.520224 0.507756 2.358594 -0.416172 0.000000 0.000000 0.000000 12.222118 -0.217658 -0.757469 12.049528 0.798577 1.076880 -2.510745 0.565593 3.025000 0.000000 0.000000 0.000000 12.510871 -0.099029 -0.820792 0.839450 6.841434 -10.069102 -1.894912 -2.717223 -0.586129 65.564721 -67.314048 -4.697935 0.223392 -26.992834 1.254318 0.000000 0.000000 0.000000 12.562540 -0.312712 -0.833878 1.361712 -1.655619 11.776612 6.066431 0.474523 -2.435121 6.400663 36.028862 57.935925 -0.918311 28.220477 0.389700 0.000000 0.000000 0.000000 
-1.109904 91.989494 4.648869 0.000000 0.000000 0.000000 -14.521867 -1.187726 -5.320842 -34.581617 21.353944 11.351012 40.880820 -8.760267 9.796725 2.697881 -6.807177 -0.014101 -2.739237 0.049404 -1.199561 0.000000 0.000000 0.000000 -13.969008 -0.812187 -5.469723 -24.117022 -32.018865 -1.724802 35.262306 9.345721 -10.269501 4.508117 8.591668 -6.873553 -3.100884 0.266559 -0.327028 0.000000 0.000000 0.000000 -14.282491 -1.742843 -5.999817 5.010316 -1.335009 2.506311 13.575252 -0.763664 -0.522998 0.513180 2.358164 -0.415983 0.000000 0.000000 0.000000 12.225466 -0.222656 -0.761405 12.044448 0.799683 1.091976 -2.534757 0.598719 3.010259 0.000000 0.000000 0.000000 12.512014 -0.104098 -0.821145 0.837283 6.835573 -10.061979 -1.897541 -2.724632 -0.576527 65.312373 -67.295129 -4.920392 0.212138 -26.962597 1.241686 0.000000 0.000000 0.000000 12.557668 -0.319805 -0.836123 1.362774 -1.661617 11.767986 6.073001 0.477864 -2.429986 6.388681 36.036262 57.947803 -0.916772 28.241307 0.391626 0.000000 0.000000 0.000000 
-1.120024 92.001907 4.660900 0.000000 0.000000 0.000000 -14.503961 -1.123555 -5.326566 -34.583406 21.336343 11.344631 40.859660 -8.773428 9.804261 2.712013 -6.813937 -0.008841 -2.744064 0.047409 -1.192628 0.000000 0.000000 0.000000 -13.953994 -0.766080 -5.478089 -24.113109 -32.084657 -1.741090 35.226967 9.355236 -10.264435 4.507883 8.617530 -6.865871 -3.082706 0.268355 -0.318079 0.000000 0.000000 0.000000 -14.258513 -1.695470 -6.004667 5.011207 -1.335131 2.516837 13.572178 -0.772953 -0.525211 0.517823 2.364210 -0.417994 0.000000 0.000000 0.000000 12.229342 -0.232220 -0.764777 12.028406 0.802152 1.121456 -2.566615 0.654862 2.983467 0.000000 0.000000 0.000000 12.511710 -0.114002 -0.820543 0.834417 6.838263 -10.049945 -1.896002 -2.739670 -0.567571 64.860597 -67.296351 -5.333896 0.204304 -26.911750 1.233804 0.000000 0.000000 0.000000 12.552061 -0.331757 -0.838248 1.365375 -1.666088 11.751673 6.079192 0.492258 -2.423905 6.381805 36.041945 57.958847 -0.912089 28.259083 0.393918 0.000000 0.000000 0.000000 
-1.127517 92.010193 4.672398 0.000000 0.000000 0.000000 -14.486580 -1.047649 -5.330868 -34.587521 21.309475 11.333741 40.841533 -8.783325 9.809279 2.723121 -6.816952 0.008381 -2.747891 0.045743 -1.186699 0.000000 0.000000 0.000000 -13.939209 -0.702968 -5.484885 -24.115924 -32.172479 -1.769422 35.200111 9.366147 -10.258365 4.505190 8.641161 -6.851278 -3.078165 0.272852 -0.309041 0.000000 0.000000 0.000000 -14.238572 -1.638515 -6.009411 5.018248 -1.338340 2.528115 13.568758 -0.786182 -0.526059 0.521582 2.370976 -0.421295 0.000000 0.000000 0.000000 12.234279 -0.245269 -0.766342 12.002737 0.805754 1.161317 -2.600707 0.732315 2.944752 0.000000 0.000000 0.000000 12.511125 -0.127886 -0.817975 0.830711 6.850517 -10.030701 -1.892015 -2.759031 -0.560165 64.247546 -67.318993 -5.906215 0.202212 -26.847100 1.232311 0.000000 0.000000 0.000000 12.546678 -0.347779 -0.839302 1.369331 -1.667725 11.727254 6.082958 0.513312 -2.415437 6.382984 36.048922 57.962782 -0.905819 28.267634 0.396996 0.000000 0.000000 0.000000 
-1.132328 92.011879 4.683178 0.000000 0.000000 0.000000 -14.468782 -0.966022 -5.331619 -34.594751 21.276231 11.318065 40.830543 -8.785947 9.810296 2.727892 -6.812081 0.038210 -2.749413 0.045182 -1.183734 0.000000 0.000000 0.000000 -13.926849 -0.627366 -5.488226 -24.125567 -32.265373 -1.807733 35.189247 9.379683 -10.254241 4.502103 8.657558 -6.824271 -3.099600 0.279011 -0.301856 0.000000 0.000000 0.000000 -14.226017 -1.574787 -6.011606 5.029378 -1.345543 2.537807 13.565670 -0.802736 -0.524963 0.522257 2.375684 -0.429996 0.000000 0.000000 0.000000 12.241053 -0.261528 -0.765145 11.968203 0.811309 1.206718 -2.629451 0.828463 2.896147 0.000000 0.000000 0.000000 12.511724 -0.144871 -0.813008 0.826096 6.871280 -10.002211 -1.880194 -2.782606 -0.549683 63.531244 -67.360138 -6.588011 0.205143 -26.771864 1.237198 0.000000 0.000000 0.000000 12.543785 -0.367085 -0.838036 1.374790 -1.664717 11.695998 6.082304 0.530893 -2.403600 6.395631 36.060564 57.955706 -0.899471 28.264400 0.401757 0.000000 0.000000 0.000000 
-1.136014 92.009132 4.693741 0.000000 0.000000 0.000000 -14.455061 -0.885865 -5.328371 -34.602664 21.239467 11.296808 40.825110 -8.783863 9.808152 2.728319 -6.799045 0.073286 -2.749744 0.045984 -1.183858 0.000000 0.000000 0.000000 -13.917105 -0.546221 -5.486650 -24.139446 -32.345409 -1.849372 35.196521 9.394107 -10.252713 4.494695 8.659043 -6.781979 -3.132510 0.285300 -0.296589 0.000000 0.000000 0.000000 -14.221016 -1.503786 -6.010220 5.043242 -1.357926 2.544897 13.562758 -0.822313 -0.521104 0.520384 2.377302 -0.440037 0.000000 0.000000 0.000000 12.248809 -0.280271 -0.760644 11.926741 0.819276 1.252617 -2.645908 0.935588 2.841174 0.000000 0.000000 0.000000 12.514914 -0.164460 -0.805650 0.820602 6.897607 -9.964122 -1.872110 -2.800585 -0.538604 62.778120 -67.410743 -7.320044 0.209986 -26.676434 1.246113 0.000000 0.000000 0.000000 12.544129 -0.388504 -0.833607 1.382455 -1.655516 11.659020 6.079501 0.543607 -2.388797 6.423325 36.078360 57.932920 -0.894438 28.251437 0.407929 0.000000 0.000000 0.000000 
-1.136917 92.005341 4.701580 0.000000 0.000000 0.000000 -14.446408 -0.808465 -5.322527 -34.609596 21.200796 11.270451 40.824061 -8.782543 9.804217 2.729474 -6.781206 0.104261 -2.749901 0.047924 -1.186313 0.000000 0.000000 0.000000 -13.909166 -0.464909 -5.480823 -24.152339 -32.399508 -1.885305 35.219635 9.405009 -10.253005 4.477155 8.638100 -6.730822 -3.154778 0.290862 -0.291376 0.000000 0.000000 0.000000 -14.219996 -1.429972 -6.005689 5.057462 -1.375743 2.550719 13.560778 -0.844530 -0.513444 0.514484 2.380809 -0.446511 0.000000 0.000000 0.000000 12.256488 -0.301309 -0.752420 11.878823 0.828193 1.295110 -2.645896 1.045255 2.783258 0.000000 0.000000 0.000000 12.521506 -0.186511 -0.795964 0.814258 6.925692 -9.918217 -1.867086 -2.820729 -0.528991 62.043840 -67.462455 -8.054816 0.214531 -26.553621 1.257015 0.000000 0.000000 0.000000 12.547992 -0.411487 -0.825163 1.392083 -1.638451 11.618510 6.076431 0.555516 -2.373245 6.468462 36.098042 57.890955 -0.892022 28.235095 0.415606 0.000000 0.000000 0.000000 
-1.134175 92.002350 4.706123 0.000000 0.000000 0.000000 -14.442385 -0.735848 -5.316133 -34.616406 21.164523 11.242493 40.827152 -8.783387 9.798662 2.737009 -6.763195 0.126496 -2.750107 0.050512 -1.189709 0.000000 0.000000 0.000000 -13.902683 -0.388843 -5.472778 -24.155804 -32.416774 -1.902266 35.248369 9.404815 -10.253291 4.442645 8.585172 -6.683896 -3.151467 0.294758 -0.284523 0.000000 0.000000 0.000000 -14.222185 -1.357698 -6.000332 5.071073 -1.398233 2.558617 13.559863 -0.868332 -0.501425 0.505689 2.384333 -0.447902 0.000000 0.000000 0.000000 12.263194 -0.323791 -0.740005 11.825381 0.837496 1.329361 -2.629496 1.148841 2.726518 0.000000 0.000000 0.000000 12.530678 -0.210373 -0.783916 0.807247 6.951890 -9.870302 -1.865536 -2.837593 -0.519758 61.366729 -67.513312 -8.756300 0.215809 -26.410912 1.269114 0.000000 0.000000 0.000000 12.554616 -0.434944 -0.812462 1.403188 -1.611838 11.574983 6.077373 0.569195 -2.358959 6.527312 36.110643 57.833097 -0.892918 28.222676 0.423924 0.000000 0.000000 0.000000 
-1.128315 92.001488 4.709854 0.000000 0.000000 0.000000 -14.442654 -0.674052 -5.311966 -34.624876 21.135976 11.218698 40.832729 -8.784583 9.791284 2.752760 -6.747902 0.142944 -2.751727 0.053099 -1.191987 0.000000 0.000000 0.000000 -13.896973 -0.323047 -5.465082 -24.147155 -32.392602 -1.895191 35.271739 9.392376 -10.252747 4.394196 8.499800 -6.645553 -3.121834 0.296488 -0.275463 0.000000 0.000000 0.000000 -14.227017 -1.293269 -5.997001 5.083813 -1.423563 2.571046 13.560157 -0.892700 -0.484652 0.499530 2.389789 -0.441996 0.000000 0.000000 0.000000 12.268136 -0.346654 -0.723102 11.765612 0.844653 1.353354 -2.601455 1.240665 2.673437 0.000000 0.000000 0.000000 12.540699 -0.234861 -0.769077 0.800346 6.974759 -9.828185 -1.867388 -2.855011 -0.517644 60.774969 -67.562578 -9.391611 0.213270 -26.257112 1.279874 0.000000 0.000000 0.000000 12.562269 -0.458017 -0.795480 1.414790 -1.577569 11.528568 6.082385 0.582396 -2.346862 6.593823 36.107713 57.764631 -0.896696 28.220412 0.431503 0.000000 0.000000 0.000000 
